<svg width="240" height="72" viewBox="0 0 240 72" fill="none" xmlns="http://www.w3.org/2000/svg">
<g clip-path="url(#clip0)">
<path d="M220.888 -1.01406e-05H19.1229C18.3874 -1.01406e-05 17.6608 -1.01405e-05 16.9273 0.00358986C16.3133 0.00718986 15.7041 0.0176479 15.0842 0.0264499C13.7375 0.0406731 12.3939 0.147007 11.0652 0.344528C9.73831 0.546349 8.45301 0.926838 7.25274 1.47313C6.05395 2.02404 4.95857 2.73989 4.00636 3.59472C3.04914 4.44714 2.25123 5.43242 1.6433 6.51268C1.03369 7.59079 0.610991 8.74608 0.389791 9.93865C0.166488 11.1297 0.0463265 12.3345 0.0303851 13.5423C0.011773 14.0941 0.00980746 14.6478 0 15.1998V56.8055C0.00980746 57.3644 0.011773 57.9058 0.0303851 58.4649C0.0463313 59.6726 0.166493 60.8773 0.389791 62.0683C0.610381 63.2616 1.03311 64.4175 1.6433 65.496C2.25095 66.5728 3.04898 67.5541 4.00636 68.4018C4.95496 69.2604 6.05104 69.9768 7.25274 70.5235C8.453 71.0712 9.73816 71.454 11.0652 71.6589C12.3941 71.8548 13.7376 71.9612 15.0842 71.9771C15.7041 71.9894 16.3133 71.9964 16.9273 71.9964C17.6608 72 18.3875 72 19.1229 72H220.888C221.609 72 222.341 72 223.062 71.9964C223.673 71.9964 224.3 71.9894 224.911 71.9771C226.255 71.9621 227.596 71.8557 228.922 71.6589C230.253 71.4525 231.543 71.0699 232.749 70.5235C233.95 69.9764 235.045 69.2601 235.993 68.4018C236.948 67.5508 237.747 66.5702 238.363 65.496C238.968 64.4168 239.387 63.2609 239.604 62.0683C239.828 60.8771 239.952 59.6727 239.977 58.4649C239.984 57.9058 239.984 57.3644 239.984 56.8055C240 56.1515 240 55.5012 240 54.8366V17.165C240 16.5058 240 15.8519 239.984 15.1998C239.984 14.6478 239.984 14.0941 239.977 13.5422C239.952 12.3344 239.828 11.1298 239.604 9.93858C239.386 8.7467 238.968 7.5915 238.363 6.51261C237.125 4.34734 235.161 2.58484 232.749 1.47297C231.543 0.928011 230.253 0.547623 228.922 0.344366C227.596 0.145975 226.255 0.0396038 224.911 0.0261979C224.3 0.0174139 223.673 0.00686586 223.062 0.00335586C222.341 -0.000244141 221.609 -0.000244141 220.888 -0.000244141V-1.01406e-05Z" fill="#A6A6A6"/>
<path d="M16.7644 70.4303C16.1523 70.4303 15.5549 70.4233 14.9476 70.4111C13.6895 70.3964 12.4343 70.2982 11.1924 70.1174C10.0343 69.9387 8.91248 69.6062 7.86385 69.131C6.82484 68.6597 5.87718 68.0417 5.05717 67.3007C4.22529 66.5685 3.53272 65.7192 3.00689 64.7865C2.47526 63.8478 2.10735 62.8416 1.91596 61.8029C1.70927 60.6869 1.59745 59.5584 1.58145 58.4272C1.56871 58.0475 1.55203 56.7833 1.55203 56.7833V15.1936C1.55203 15.1936 1.56979 13.9488 1.58155 13.5831C1.59687 12.4537 1.70804 11.3269 1.91411 10.2126C2.10585 9.17116 2.47405 8.16205 3.00596 7.22023C3.52986 6.2882 4.21859 5.43828 5.04546 4.7034C5.8714 3.96154 6.82209 3.34038 7.86287 2.86257C8.90909 2.38886 10.0288 2.05874 11.1845 1.88327C12.4305 1.70065 13.6901 1.60192 14.9526 1.5879L16.7654 1.56592H223.235L225.07 1.58878C226.321 1.6021 227.569 1.69996 228.804 1.88151C229.971 2.05918 231.102 2.3916 232.161 2.86784C234.246 3.83077 235.942 5.3542 237.013 7.22463C237.536 8.15994 237.898 9.16082 238.088 10.1933C238.296 11.3167 238.413 12.4523 238.437 13.591C238.443 14.1009 238.443 14.6485 238.443 15.1936C238.459 15.8687 238.459 16.5113 238.459 17.1592V54.8387C238.459 55.4928 238.459 56.131 238.443 56.7745C238.443 57.36 238.443 57.8963 238.435 58.4483C238.412 59.5666 238.297 60.6819 238.092 61.7853C237.904 62.8314 237.538 63.8455 237.007 64.7919C236.477 65.7145 235.789 66.5564 234.966 67.2867C234.146 68.0317 233.196 68.6533 232.155 69.1276C231.1 69.6065 229.97 69.9401 228.804 70.1174C227.562 70.2992 226.307 70.3973 225.048 70.4111C224.46 70.4233 223.844 70.4303 223.245 70.4303L221.067 70.4339L16.7644 70.4303Z" fill="black"/>
<path d="M58.3063 36.5409C58.3254 35.0385 58.7196 33.5655 59.4521 32.2587C60.1846 30.952 61.2316 29.8541 62.4958 29.0672C61.6927 27.9059 60.6332 26.9502 59.4015 26.276C58.1698 25.6019 56.7998 25.2277 55.4004 25.1834C52.4151 24.8661 49.5209 26.9921 47.9997 26.9921C46.449 26.9921 44.1067 25.2149 41.5846 25.2674C39.9531 25.3208 38.3632 25.8011 36.9696 26.6617C35.5761 27.5222 34.4264 28.7335 33.6327 30.1776C30.1945 36.2048 32.7591 45.0627 36.0526 49.9345C37.7004 52.3202 39.6263 54.985 42.1462 54.8905C44.6121 54.7869 45.533 53.2984 48.5096 53.2984C51.4585 53.2984 52.3225 54.8905 54.8935 54.8304C57.5396 54.7869 59.2067 52.4342 60.7967 50.026C61.9806 48.3261 62.8917 46.4474 63.4961 44.4594C61.9588 43.8011 60.647 42.6992 59.7241 41.2911C58.8012 39.8829 58.3081 38.2309 58.3063 36.5409Z" fill="white"/>
<path d="M53.4501 21.9794C54.8928 20.2258 55.6036 17.9719 55.4315 15.6963C53.2273 15.9307 51.1913 16.9973 49.7291 18.6836C49.0142 19.5074 48.4666 20.4658 48.1177 21.504C47.7689 22.5421 47.6255 23.6398 47.6958 24.7341C48.7983 24.7456 49.889 24.5036 50.8857 24.0265C51.8824 23.5493 52.7593 22.8494 53.4501 21.9794Z" fill="white"/>
<path d="M89.4768 48.8513H81.0619L79.041 54.8929H75.4768L83.4473 32.5405H87.1504L95.1209 54.8929H91.4959L89.4768 48.8513ZM81.9334 46.0634H88.6036L85.3154 36.2583H85.2234L81.9334 46.0634Z" fill="white"/>
<path d="M112.334 46.7454C112.334 51.8096 109.657 55.0633 105.617 55.0633C104.594 55.1175 103.576 54.8788 102.681 54.3746C101.785 53.8703 101.048 53.1209 100.553 52.2121H100.477V60.284H97.1729V38.5961H100.371V41.3067H100.432C100.949 40.4022 101.699 39.6567 102.601 39.1494C103.504 38.642 104.525 38.3919 105.557 38.4256C109.642 38.4256 112.334 41.6951 112.334 46.7454ZM108.939 46.7454C108.939 43.446 107.255 41.2768 104.685 41.2768C102.161 41.2768 100.463 43.4916 100.463 46.7454C100.463 50.029 102.161 52.228 104.685 52.228C107.255 52.228 108.939 50.0747 108.939 46.7454Z" fill="white"/>
<path d="M130.05 46.7453C130.05 51.8096 127.373 55.0633 123.333 55.0633C122.309 55.1175 121.292 54.8788 120.396 54.3746C119.5 53.8703 118.763 53.1209 118.268 52.2121H118.192V60.284H114.888V38.5961H118.086V41.3067H118.147C118.664 40.4022 119.414 39.6567 120.316 39.1494C121.219 38.642 122.24 38.3919 123.272 38.4256C127.357 38.4256 130.05 41.6951 130.05 46.7453ZM126.654 46.7453C126.654 43.4459 124.97 41.2768 122.4 41.2768C119.876 41.2768 118.178 43.4916 118.178 46.7453C118.178 50.0289 119.876 52.228 122.4 52.228C124.97 52.228 126.654 50.0746 126.654 46.7453H126.654Z" fill="white"/>
<path d="M141.758 48.6649C142.003 50.8815 144.13 52.3369 147.036 52.3369C149.821 52.3369 151.824 50.8814 151.824 48.8828C151.824 47.1478 150.616 46.109 147.755 45.397L144.893 44.6992C140.84 43.7078 138.958 41.7882 138.958 38.6734C138.958 34.8167 142.277 32.1677 146.991 32.1677C151.656 32.1677 154.854 34.8167 154.961 38.6734H151.626C151.426 36.4427 149.605 35.0963 146.944 35.0963C144.282 35.0963 142.461 36.4586 142.461 38.4414C142.461 40.0216 143.624 40.9515 146.47 41.6634L148.902 42.2681C153.432 43.3526 155.314 45.1949 155.314 48.4643C155.314 52.6462 152.024 55.2653 146.791 55.2653C141.895 55.2653 138.59 52.7077 138.376 48.6647L141.758 48.6649Z" fill="white"/>
<path d="M162.444 34.7395V38.5961H165.505V41.2452H162.444V50.2293C162.444 51.625 163.057 52.2754 164.402 52.2754C164.765 52.269 165.128 52.2432 165.489 52.198V54.8312C164.884 54.9457 164.269 54.9975 163.654 54.9859C160.395 54.9859 159.124 53.7467 159.124 50.5861V41.2452H156.784V38.5961H159.124V34.7395H162.444Z" fill="white"/>
<path d="M167.277 46.7454C167.277 41.6178 170.26 38.3958 174.911 38.3958C179.578 38.3958 182.546 41.6178 182.546 46.7454C182.546 51.887 179.593 55.095 174.911 55.095C170.23 55.095 167.277 51.8869 167.277 46.7454ZM179.18 46.7454C179.18 43.228 177.588 41.152 174.911 41.152C172.234 41.152 170.644 43.2438 170.644 46.7454C170.644 50.2768 172.234 52.337 174.911 52.337C177.588 52.337 179.18 50.2768 179.18 46.7454H179.18Z" fill="white"/>
<path d="M185.27 38.5962H188.421V41.37H188.498C188.711 40.5037 189.212 39.7381 189.917 39.2019C190.622 38.6657 191.488 38.3916 192.369 38.4257C192.75 38.4243 193.13 38.4662 193.501 38.5505V41.6794C193.021 41.5307 192.519 41.4624 192.017 41.4773C191.537 41.4575 191.058 41.5432 190.614 41.7284C190.17 41.9136 189.771 42.1939 189.444 42.5501C189.116 42.9063 188.869 43.33 188.719 43.792C188.569 44.254 188.52 44.7434 188.574 45.2267V54.8929H185.27L185.27 38.5962Z" fill="white"/>
<path d="M208.734 50.1063C208.289 53.0647 205.444 55.095 201.803 55.095C197.121 55.095 194.215 51.9186 194.215 46.8227C194.215 41.711 197.137 38.3958 201.664 38.3958C206.117 38.3958 208.918 41.493 208.918 46.4342V47.5803H197.55V47.7825C197.497 48.3822 197.571 48.9864 197.767 49.5549C197.963 50.1234 198.276 50.6433 198.686 51.0798C199.095 51.5164 199.592 51.8598 200.143 52.0871C200.693 52.3145 201.285 52.4206 201.88 52.3985C202.66 52.4725 203.444 52.2895 204.114 51.8765C204.783 51.4635 205.303 50.8426 205.597 50.1063L208.734 50.1063ZM197.565 45.2424H205.612C205.642 44.7032 205.561 44.1635 205.375 43.6573C205.189 43.1511 204.902 42.6894 204.531 42.301C204.16 41.9126 203.714 41.606 203.221 41.4004C202.728 41.1948 202.198 41.0947 201.664 41.1063C201.126 41.103 200.593 41.2077 200.095 41.4142C199.597 41.6208 199.145 41.9251 198.764 42.3096C198.383 42.6942 198.08 43.1513 197.875 43.6547C197.669 44.1581 197.564 44.6977 197.565 45.2424V45.2424Z" fill="white"/>
<path d="M81.5193 15.7158C82.212 15.6655 82.907 15.7714 83.5543 16.026C84.2016 16.2806 84.7851 16.6774 85.2625 17.188C85.74 17.6985 86.0997 18.31 86.3155 18.9782C86.5313 19.6465 86.598 20.355 86.5106 21.0525C86.5106 24.4838 84.679 26.4561 81.5193 26.4561H77.6877V15.7158H81.5193ZM79.3353 24.9372H81.3353C81.8302 24.9672 82.3255 24.885 82.7851 24.6967C83.2448 24.5084 83.6572 24.2187 83.9922 23.8487C84.3273 23.4786 84.5767 23.0376 84.7223 22.5577C84.8678 22.0778 84.9058 21.5711 84.8335 21.0744C84.9006 20.5797 84.8587 20.0761 84.7109 19.5997C84.5632 19.1233 84.3132 18.6859 83.9788 18.3188C83.6445 17.9518 83.2341 17.6641 82.7771 17.4765C82.32 17.2889 81.8277 17.2059 81.3353 17.2336H79.3353V24.9372Z" fill="white"/>
<path d="M88.3717 22.3998C88.3214 21.8672 88.3816 21.3297 88.5484 20.822C88.7153 20.3143 88.985 19.8475 89.3405 19.4515C89.6959 19.0555 90.1292 18.7392 90.6125 18.5227C91.0958 18.3062 91.6184 18.1943 92.1469 18.1943C92.6754 18.1943 93.198 18.3062 93.6813 18.5227C94.1646 18.7392 94.5979 19.0555 94.9533 19.4515C95.3088 19.8475 95.5786 20.3143 95.7454 20.822C95.9122 21.3297 95.9724 21.8672 95.9221 22.3998C95.9734 22.933 95.9139 23.4712 95.7475 23.9797C95.5811 24.4883 95.3115 24.9559 94.956 25.3527C94.6004 25.7494 94.1668 26.0665 93.6831 26.2834C93.1993 26.5004 92.676 26.6125 92.1469 26.6125C91.6178 26.6125 91.0945 26.5004 90.6108 26.2834C90.127 26.0665 89.6934 25.7494 89.3379 25.3527C88.9823 24.9559 88.7127 24.4883 88.5463 23.9797C88.3799 23.4712 88.3205 22.933 88.3717 22.3998ZM94.2971 22.3998C94.2971 20.6429 93.5176 19.6155 92.1495 19.6155C90.7763 19.6155 90.0037 20.6429 90.0037 22.3998C90.0037 24.1708 90.7763 25.1904 92.1495 25.1904C93.5176 25.1903 94.2971 24.1638 94.2971 22.3998H94.2971Z" fill="white"/>
<path d="M105.959 26.4559H104.32L102.665 20.4863H102.54L100.893 26.4559H99.2693L97.0627 18.3506H98.6652L100.099 24.5354H100.217L101.863 18.3506H103.379L105.025 24.5354H105.15L106.577 18.3506H108.156L105.959 26.4559Z" fill="white"/>
<path d="M110.012 18.3507H111.533V19.6383H111.651C111.852 19.1759 112.189 18.7882 112.618 18.5293C113.046 18.2705 113.543 18.1533 114.04 18.1943C114.43 18.1646 114.821 18.2241 115.184 18.3682C115.548 18.5124 115.875 18.7376 116.141 19.0271C116.407 19.3166 116.606 19.6631 116.722 20.0407C116.838 20.4184 116.868 20.8177 116.811 21.2089V26.4559H115.231V21.6106C115.231 20.3081 114.672 19.6603 113.504 19.6603C113.239 19.6478 112.975 19.6934 112.73 19.7939C112.484 19.8944 112.263 20.0474 112.082 20.2425C111.9 20.4376 111.762 20.6701 111.678 20.9242C111.593 21.1782 111.564 21.4477 111.592 21.7143V26.456H110.012L110.012 18.3507Z" fill="white"/>
<path d="M119.328 15.1865H120.908V26.4559H119.328V15.1865Z" fill="white"/>
<path d="M123.104 22.3997C123.054 21.867 123.114 21.3296 123.281 20.8218C123.448 20.3141 123.718 19.8473 124.073 19.4513C124.429 19.0553 124.862 18.7389 125.345 18.5224C125.829 18.3059 126.351 18.1941 126.88 18.1941C127.408 18.1941 127.931 18.3059 128.414 18.5224C128.898 18.7389 129.331 19.0553 129.687 19.4513C130.042 19.8473 130.312 20.3141 130.479 20.8218C130.646 21.3296 130.706 21.867 130.656 22.3997C130.707 22.9329 130.647 23.4711 130.481 23.9797C130.314 24.4882 130.045 24.9559 129.689 25.3526C129.334 25.7493 128.9 26.0664 128.416 26.2833C127.932 26.5003 127.409 26.6123 126.88 26.6123C126.351 26.6123 125.828 26.5003 125.344 26.2833C124.86 26.0664 124.426 25.7493 124.071 25.3526C123.715 24.9559 123.446 24.4882 123.279 23.9797C123.113 23.4711 123.053 22.9329 123.104 22.3997ZM129.03 22.3997C129.03 20.6428 128.25 19.6154 126.882 19.6154C125.509 19.6154 124.736 20.6428 124.736 22.3997C124.736 24.1707 125.509 25.1903 126.882 25.1903C128.25 25.1902 129.03 24.1637 129.03 22.3997H129.03Z" fill="white"/>
<path d="M132.319 24.1636C132.319 22.7046 133.392 21.8635 135.296 21.744L137.465 21.6174V20.9178C137.465 20.0618 136.906 19.5784 135.826 19.5784C134.944 19.5784 134.333 19.9062 134.157 20.4792H132.628C132.789 19.0871 134.083 18.1941 135.899 18.1941C137.906 18.1941 139.038 19.2057 139.038 20.9178V26.4558H137.517V25.3167H137.392C137.138 25.7253 136.782 26.0584 136.359 26.282C135.937 26.5056 135.463 26.6116 134.987 26.5893C134.651 26.6247 134.311 26.5884 133.99 26.4828C133.669 26.3771 133.373 26.2045 133.121 25.9759C132.87 25.7474 132.669 25.468 132.53 25.1559C132.392 24.8437 132.32 24.5057 132.319 24.1636ZM137.465 23.471V22.7934L135.51 22.92C134.407 22.9947 133.907 23.3743 133.907 24.0889C133.907 24.8184 134.532 25.2429 135.392 25.2429C135.644 25.2687 135.898 25.243 136.14 25.1672C136.382 25.0914 136.606 24.9672 136.799 24.8019C136.993 24.6366 137.151 24.4336 137.265 24.2049C137.38 23.9763 137.448 23.7267 137.465 23.471Z" fill="white"/>
<path d="M141.114 22.3997C141.114 19.8386 142.414 18.2161 144.437 18.2161C144.937 18.1928 145.434 18.3141 145.868 18.5659C146.303 18.8177 146.658 19.1896 146.892 19.6381H147.01V15.1865H148.59V26.4559H147.076V25.1753H146.951C146.699 25.6208 146.332 25.988 145.889 26.2373C145.445 26.4866 144.943 26.6083 144.437 26.5894C142.4 26.5895 141.114 24.967 141.114 22.3997ZM142.746 22.3997C142.746 24.1189 143.546 25.1534 144.885 25.1534C146.216 25.1534 147.039 24.104 147.039 22.4068C147.039 20.7175 146.208 19.6532 144.885 19.6532C143.555 19.6532 142.746 20.6946 142.746 22.3997H142.746Z" fill="white"/>
<path d="M155.126 22.3998C155.076 21.8672 155.136 21.3297 155.303 20.822C155.47 20.3143 155.739 19.8475 156.095 19.4515C156.45 19.0555 156.884 18.7392 157.367 18.5227C157.85 18.3062 158.373 18.1943 158.901 18.1943C159.43 18.1943 159.952 18.3062 160.436 18.5227C160.919 18.7392 161.352 19.0555 161.708 19.4515C162.063 19.8475 162.333 20.3143 162.5 20.822C162.667 21.3297 162.727 21.8672 162.676 22.3998C162.728 22.933 162.668 23.4712 162.502 23.9797C162.335 24.4883 162.066 24.9559 161.71 25.3527C161.355 25.7494 160.921 26.0665 160.437 26.2834C159.954 26.5004 159.43 26.6125 158.901 26.6125C158.372 26.6125 157.849 26.5004 157.365 26.2834C156.881 26.0665 156.448 25.7494 156.092 25.3527C155.737 24.9559 155.467 24.4883 155.301 23.9797C155.134 23.4712 155.075 22.933 155.126 22.3998ZM161.051 22.3998C161.051 20.6429 160.272 19.6155 158.904 19.6155C157.531 19.6155 156.758 20.6429 156.758 22.3998C156.758 24.1708 157.531 25.1904 158.904 25.1904C160.272 25.1903 161.051 24.1638 161.051 22.3998Z" fill="white"/>
<path d="M164.796 18.3507H166.317V19.6383H166.435C166.635 19.1759 166.973 18.7882 167.401 18.5293C167.83 18.2705 168.327 18.1533 168.824 18.1943C169.214 18.1646 169.605 18.2241 169.968 18.3682C170.332 18.5124 170.659 18.7376 170.925 19.0271C171.191 19.3166 171.39 19.6631 171.506 20.0407C171.622 20.4184 171.652 20.8177 171.595 21.2089V26.4559H170.015V21.6106C170.015 20.3081 169.456 19.6603 168.288 19.6603C168.023 19.6478 167.759 19.6934 167.514 19.7939C167.268 19.8944 167.047 20.0474 166.866 20.2425C166.684 20.4376 166.546 20.6701 166.462 20.9242C166.377 21.1782 166.348 21.4477 166.376 21.7143V26.456H164.796V18.3507Z" fill="white"/>
<path d="M180.522 16.3325V18.3874H182.256V19.7348H180.522V23.9025C180.522 24.7516 180.867 25.1233 181.654 25.1233C181.855 25.1227 182.056 25.1104 182.256 25.0864V26.4188C181.973 26.4702 181.685 26.4976 181.397 26.5006C179.64 26.5006 178.94 25.8748 178.94 24.3121V19.7347H177.669V18.3873H178.94V16.3325H180.522Z" fill="white"/>
<path d="M184.414 15.1865H185.98V19.6531H186.105C186.315 19.1864 186.662 18.7965 187.099 18.5367C187.536 18.2768 188.041 18.1597 188.546 18.2012C188.934 18.1798 189.321 18.2453 189.681 18.393C190.04 18.5407 190.363 18.7669 190.627 19.0555C190.89 19.3441 191.087 19.688 191.204 20.0626C191.321 20.4373 191.355 20.8334 191.303 21.2229V26.4559H189.722V21.6175C189.722 20.3228 189.126 19.6672 188.01 19.6672C187.738 19.6446 187.465 19.6824 187.21 19.7779C186.954 19.8734 186.722 20.0243 186.53 20.22C186.338 20.4158 186.191 20.6516 186.098 20.911C186.006 21.1705 185.97 21.4473 185.994 21.7221V26.4558H184.414L184.414 15.1865Z" fill="white"/>
<path d="M200.515 24.2675C200.3 25.0082 199.835 25.649 199.201 26.0777C198.567 26.5063 197.804 26.6956 197.046 26.6124C196.519 26.6265 195.995 26.5242 195.51 26.3126C195.026 26.1011 194.593 25.7853 194.241 25.3873C193.889 24.9892 193.627 24.5184 193.473 24.0076C193.319 23.4967 193.276 22.958 193.348 22.4288C193.278 21.898 193.321 21.3581 193.475 20.8457C193.629 20.3333 193.889 19.8603 194.239 19.4588C194.589 19.0573 195.021 18.7366 195.504 18.5184C195.987 18.3002 196.51 18.1897 197.039 18.1942C199.267 18.1942 200.61 19.735 200.61 22.2802V22.8384H194.958V22.928C194.933 23.2255 194.97 23.5249 195.066 23.807C195.162 24.0892 195.316 24.3478 195.516 24.5665C195.717 24.7851 195.961 24.9588 196.232 25.0765C196.503 25.1943 196.795 25.2533 197.09 25.25C197.468 25.296 197.85 25.2271 198.19 25.0521C198.529 24.8771 198.809 24.604 198.994 24.2674L200.515 24.2675ZM194.958 21.6554H199.001C199.021 21.3833 198.984 21.1101 198.894 20.8532C198.803 20.5963 198.661 20.3614 198.475 20.1637C198.289 19.966 198.065 19.8097 197.816 19.705C197.568 19.6003 197.3 19.5494 197.031 19.5557C196.757 19.5522 196.486 19.6041 196.233 19.7084C195.98 19.8127 195.75 19.9673 195.557 20.163C195.364 20.3586 195.211 20.5915 195.108 20.8478C195.005 21.1041 194.954 21.3787 194.958 21.6554H194.958Z" fill="white"/>
</g>
<defs>
<clipPath id="clip0">
<rect width="240" height="72" fill="white"/>
</clipPath>
</defs>
</svg>
