<svg width="24" height="24" viewBox="0 0 24 24" fill="none" xmlns="http://www.w3.org/2000/svg">
<path d="M11.9998 24C18.6271 24 23.9996 18.6274 23.9996 12C23.9996 5.37258 18.6271 0 11.9998 0C5.3725 0 0 5.37258 0 12C0 18.6274 5.3725 24 11.9998 24Z" fill="#001348"/>
<path d="M12.0002 0C11.9947 0 11.9893 0.000187477 11.9839 0.000187477V23.9998C11.9893 23.9998 11.9947 24 12.0002 24C18.6275 24 24 18.6274 24 12C24 5.37252 18.6275 0 12.0002 0Z" fill="#001348"/>
<path d="M5.21541 12.2385L10.069 17.0906C10.2807 17.3022 10.6239 17.3022 10.8356 17.0906L18.8038 9.12484C19.0155 8.91323 19.0155 8.5701 18.8038 8.35849L17.3534 6.90859C17.1418 6.69697 16.7985 6.69697 16.5869 6.90859L10.7912 12.7023C10.5796 12.9139 10.2363 12.9139 10.0246 12.7023L7.42743 10.1059C7.21992 9.89847 6.88494 9.89378 6.67171 10.0953L5.22629 11.4615C5.00444 11.6712 4.99951 12.0227 5.21541 12.2385Z" fill="#FFF5F5"/>
<path d="M17.3543 6.90841C17.1427 6.69679 16.7994 6.69679 16.5877 6.90841L11.9844 11.5103V15.9429L18.8047 9.12471C19.0164 8.91309 19.0164 8.56996 18.8047 8.3583L17.3543 6.90841Z" fill="#DFEBF1"/>
</svg>
