<svg width="240" height="72" viewBox="0 0 240 72" fill="none" xmlns="http://www.w3.org/2000/svg">
<path d="M231.111 0H8.88889C3.97969 0 0 4.02942 0 8.99996V62.9997C0 67.9702 3.97969 71.9996 8.88889 71.9996H231.111C236.02 71.9996 240 67.9702 240 62.9997V8.99996C240 4.02942 236.02 0 231.111 0Z" fill="black"/>
<path d="M231.111 1.43988C233.091 1.44219 234.989 2.23948 236.388 3.65683C237.788 5.07418 238.575 6.99584 238.578 9.0002V62.9999C238.575 65.0043 237.788 66.9259 236.388 68.3433C234.989 69.7606 233.091 70.5579 231.111 70.5602H8.88889C6.90925 70.5579 5.01134 69.7607 3.61155 68.3433C2.21177 66.926 1.42441 65.0043 1.42222 62.9999V9.0002C1.42438 6.99581 2.21172 5.07413 3.61152 3.65678C5.01131 2.23943 6.90923 1.44215 8.88889 1.43988H231.111ZM231.111 0.000244141H8.88889C6.53353 0.00722468 4.27661 0.957673 2.61111 2.64398C0.945613 4.33029 0.0068944 6.61541 0 9.0002L0 62.9999C0.0068944 65.3847 0.945613 67.6698 2.61111 69.3561C4.27661 71.0424 6.53353 71.9929 8.88889 71.9999H231.111C233.466 71.9929 235.723 71.0424 237.389 69.3561C239.054 67.6698 239.993 65.3847 240 62.9999V9.0002C239.993 6.61541 239.054 4.33029 237.389 2.64398C235.723 0.957673 233.466 0.00722468 231.111 0.000244141Z" fill="#A6A6A6"/>
<path d="M84.2994 18.4378C84.3317 19.0983 84.2309 19.7586 84.0031 20.3784C83.7754 20.9982 83.4254 21.5646 82.9746 22.043C82.4693 22.5736 81.8591 22.9902 81.1839 23.2655C80.5086 23.5409 79.7836 23.6688 79.0562 23.6409C78.3241 23.6475 77.5981 23.5059 76.9209 23.2244C76.2437 22.9429 75.6288 22.5272 75.1126 22.0017C74.5963 21.4761 74.189 20.8514 73.9146 20.1642C73.6402 19.477 73.5042 18.7412 73.5147 18.0001C73.5043 17.2589 73.6403 16.5231 73.9147 15.8359C74.1891 15.1487 74.5964 14.5239 75.1127 13.9984C75.6289 13.4728 76.2437 13.057 76.9209 12.7753C77.5981 12.4937 78.3241 12.3519 79.0562 12.3584C79.8088 12.3561 80.554 12.5101 81.2455 12.8111C81.8877 13.0747 82.4594 13.4881 82.9139 14.0178L81.9763 14.9678C81.619 14.542 81.1699 14.205 80.6636 13.9829C80.1573 13.7607 79.6073 13.6593 79.0562 13.6864C78.5014 13.6835 77.9517 13.794 77.44 14.0113C76.9284 14.2285 76.4653 14.5481 76.0786 14.9509C75.6918 15.3537 75.3893 15.8313 75.1892 16.3553C74.9891 16.8792 74.8955 17.4386 74.9139 18.0001C74.9007 18.841 75.1344 19.667 75.5855 20.3733C76.0365 21.0796 76.6845 21.6344 77.4473 21.9673C78.2102 22.3002 79.0534 22.3962 79.8703 22.2432C80.6871 22.0903 81.4406 21.6951 82.0354 21.1079C82.5827 20.5108 82.9 19.7344 82.9294 18.9202H79.0562V17.623H84.2247C84.2736 17.8918 84.2986 18.1645 84.2994 18.4378Z" fill="white" stroke="white" stroke-width="0.2" stroke-miterlimit="10"/>
<path d="M92.4937 13.9272H87.6361V17.3514H92.0163V18.6488H87.6361V22.0729H92.4937V23.4H86.2663V12.6001H92.4937V13.9272Z" fill="white" stroke="white" stroke-width="0.2" stroke-miterlimit="10"/>
<path d="M98.2733 23.4H96.9017V13.9272H93.9225V12.6001H101.252V13.9272H98.2733V23.4Z" fill="white" stroke="white" stroke-width="0.2" stroke-miterlimit="10"/>
<path d="M106.556 23.4V12.6001H107.926V23.4H106.556Z" fill="white" stroke="white" stroke-width="0.2" stroke-miterlimit="10"/>
<path d="M114.006 23.4H112.634V13.9272H109.655V12.6001H116.985V13.9272H114.006V23.4Z" fill="white" stroke="white" stroke-width="0.2" stroke-miterlimit="10"/>
<path d="M130.861 22.0044C129.823 23.0524 128.416 23.6409 126.95 23.6409C125.484 23.6409 124.078 23.0524 123.04 22.0044C122.526 21.4776 122.122 20.8517 121.853 20.1638C121.583 19.4759 121.452 18.7401 121.469 18.0001C121.452 17.2601 121.583 16.5243 121.853 15.8364C122.122 15.1485 122.526 14.5226 123.04 13.9958C123.553 13.4761 124.162 13.064 124.833 12.783C125.504 12.502 126.223 12.3577 126.948 12.3584C127.674 12.3591 128.393 12.5046 129.063 12.7868C129.733 13.069 130.342 13.4822 130.854 14.0029C131.368 14.5282 131.773 15.1527 132.044 15.8394C132.315 16.526 132.447 17.2608 132.432 18.0001C132.448 18.7401 132.318 19.4757 132.048 20.1636C131.778 20.8514 131.374 21.4774 130.861 22.0044ZM124.052 21.1001C124.821 21.8773 125.863 22.3138 126.95 22.3138C128.036 22.3138 129.078 21.8773 129.847 21.1001C130.241 20.6913 130.55 20.2059 130.754 19.6731C130.957 19.1403 131.052 18.5711 131.033 18.0001C131.052 17.4291 130.957 16.86 130.754 16.3272C130.55 15.7944 130.241 15.3089 129.847 14.9002C129.078 14.1229 128.036 13.6864 126.95 13.6864C125.863 13.6864 124.821 14.1229 124.052 14.9002C123.658 15.3092 123.35 15.7948 123.147 16.3275C122.943 16.8603 122.848 17.4292 122.868 18.0001C122.848 18.571 122.943 19.1399 123.147 19.6727C123.35 20.2054 123.658 20.691 124.052 21.1001Z" fill="white" stroke="white" stroke-width="0.2" stroke-miterlimit="10"/>
<path d="M134.356 23.4V12.6001H136.024L141.208 21.0016H141.267L141.208 18.9202V12.6001H142.58V23.4H141.149L135.725 14.5916H135.666L135.725 16.6729V23.4H134.356Z" fill="white" stroke="white" stroke-width="0.2" stroke-miterlimit="10"/>
<path d="M121.13 39.1529C119.636 39.1587 118.177 39.6125 116.937 40.4572C115.698 41.3019 114.733 42.4996 114.165 43.899C113.597 45.2984 113.452 46.8368 113.747 48.3199C114.042 49.8031 114.764 51.1645 115.823 52.2322C116.881 53.3 118.228 54.0262 119.694 54.3193C121.16 54.6123 122.679 54.459 124.059 53.8787C125.439 53.2984 126.618 52.3171 127.448 51.0588C128.277 49.8004 128.72 48.3214 128.72 46.8085C128.735 45.7966 128.548 44.792 128.172 43.8545C127.795 42.9171 127.236 42.0659 126.528 41.3517C125.82 40.6374 124.977 40.0747 124.05 39.697C123.123 39.3192 122.13 39.1342 121.13 39.1529ZM121.13 51.4483C120.21 51.5147 119.291 51.2991 118.494 50.8295C117.696 50.3599 117.057 49.6581 116.659 48.8154C116.261 47.9728 116.123 47.0283 116.262 46.1049C116.402 45.1816 116.813 44.3222 117.441 43.6386C118.07 42.955 118.888 42.4789 119.787 42.2723C120.687 42.0657 121.627 42.1381 122.486 42.4801C123.344 42.8221 124.081 43.4179 124.601 44.1899C125.12 44.9619 125.398 45.8744 125.398 46.8085C125.426 47.3986 125.337 47.9884 125.136 48.5432C124.935 49.0979 124.627 49.6065 124.23 50.0388C123.832 50.4712 123.353 50.8186 122.821 51.0607C122.288 51.3027 121.714 51.4345 121.13 51.4483ZM104.573 39.1529C103.079 39.1586 101.62 39.6125 100.38 40.4572C99.1405 41.3018 98.1758 42.4995 97.6078 43.8989C97.0399 45.2983 96.8942 46.8367 97.1892 48.3198C97.4842 49.803 98.2066 51.1644 99.2652 52.2322C100.324 53.2999 101.671 54.0262 103.137 54.3193C104.603 54.6123 106.122 54.459 107.502 53.8787C108.882 53.2984 110.061 52.3171 110.891 51.0588C111.72 49.8004 112.163 48.3214 112.163 46.8085C112.178 45.7966 111.991 44.792 111.614 43.8546C111.238 42.9171 110.679 42.066 109.971 41.3517C109.263 40.6375 108.42 40.0747 107.493 39.697C106.565 39.3193 105.573 39.1342 104.573 39.1529ZM104.573 51.4483C103.653 51.5147 102.734 51.2991 101.937 50.8295C101.139 50.3599 100.5 49.6581 100.102 48.8154C99.7039 47.9728 99.5656 47.0283 99.7052 46.1049C99.8447 45.1816 100.256 44.3222 100.884 43.6386C101.513 42.955 102.33 42.4789 103.23 42.2723C104.13 42.0657 105.07 42.1381 105.929 42.4801C106.787 42.8221 107.524 43.4179 108.043 44.1899C108.563 44.9619 108.841 45.8744 108.841 46.8085C108.868 47.3986 108.78 47.9884 108.579 48.5432C108.378 49.098 108.07 49.6065 107.672 50.0388C107.275 50.4712 106.796 50.8186 106.264 51.0607C105.731 51.3028 105.156 51.4346 104.573 51.4483ZM84.8775 41.5019V44.7496H92.5534C92.4427 46.273 91.827 47.7138 90.8062 48.8385C90.037 49.6324 89.112 50.2541 88.0908 50.6637C87.0696 51.0732 85.975 51.2615 84.8775 51.2163C82.6339 51.1855 80.4925 50.2616 78.9167 48.6443C77.3409 47.027 76.4574 44.8465 76.4574 42.5747C76.4574 40.3029 77.3409 38.1224 78.9167 36.5051C80.4925 34.8879 82.6339 33.9639 84.8775 33.9331C87.0326 33.9046 89.1117 34.7383 90.6631 36.253L92.9257 33.9621C91.8671 32.901 90.61 32.0646 89.228 31.5019C87.846 30.9392 86.3669 30.6616 84.8775 30.6852C83.321 30.6623 81.7756 30.9529 80.3311 31.5401C78.8865 32.1273 77.5716 32.9994 76.463 34.1057C75.3543 35.212 74.4739 36.5305 73.8729 37.9844C73.272 39.4383 72.9626 40.9986 72.9626 42.5747C72.9626 44.1508 73.272 45.7112 73.8729 47.1651C74.4739 48.619 75.3543 49.9374 76.463 51.0437C77.5716 52.15 78.8865 53.0221 80.3311 53.6094C81.7756 54.1966 83.321 54.4871 84.8775 54.4642C86.3983 54.5281 87.9152 54.2637 89.3274 53.6888C90.7396 53.1138 92.015 52.2414 93.0688 51.1294C94.9398 49.0616 95.937 46.3346 95.8471 43.5318C95.8544 42.8511 95.7968 42.1713 95.675 41.5019H84.8775ZM165.426 44.0246C164.971 42.638 164.106 41.4265 162.948 40.555C161.79 39.6834 160.395 39.1939 158.953 39.1529C157.981 39.159 157.021 39.3645 156.13 39.757C155.239 40.1495 154.436 40.7208 153.77 41.4363C153.103 42.1519 152.587 42.9969 152.252 43.9203C151.917 44.8436 151.771 45.8262 151.821 46.8085C151.799 47.815 151.978 48.8157 152.347 49.7507C152.715 50.6857 153.266 51.5359 153.967 52.2505C154.667 52.9651 155.503 53.5294 156.423 53.9098C157.344 54.2901 158.331 54.4787 159.325 54.4642C160.571 54.4712 161.799 54.1648 162.898 53.5726C163.998 52.9804 164.935 52.121 165.626 51.0714L163.048 49.3315C162.662 49.9808 162.116 50.5174 161.463 50.8885C160.811 51.2596 160.074 51.4525 159.325 51.4483C158.555 51.4781 157.793 51.2729 157.14 50.8593C156.486 50.4456 155.97 49.8426 155.659 49.1285L165.769 44.8947L165.426 44.0246ZM155.115 46.5766C155.079 46.0194 155.154 45.4606 155.334 44.9329C155.514 44.4053 155.797 43.9193 156.165 43.5034C156.533 43.0876 156.979 42.7502 157.477 42.5111C157.976 42.272 158.516 42.1359 159.067 42.1109C159.641 42.0726 160.213 42.2063 160.712 42.495C161.211 42.7838 161.615 43.215 161.874 43.7348L155.115 46.5766ZM146.895 54.0002H150.217V31.4974H146.895V54.0002ZM141.453 40.8638H141.339C140.834 40.3082 140.217 39.8681 139.531 39.5731C138.844 39.278 138.103 39.1348 137.358 39.1529C135.408 39.2369 133.566 40.0802 132.215 41.5068C130.865 42.9333 130.111 44.8327 130.111 46.8086C130.111 48.7844 130.865 50.6839 132.215 52.1104C133.566 53.5369 135.408 54.3802 137.358 54.4642C138.106 54.4844 138.85 54.3392 139.538 54.0387C140.225 53.7382 140.84 53.2897 141.339 52.7243H141.453V53.8263C141.453 56.7552 139.907 58.321 137.415 58.321C136.584 58.3009 135.779 58.0309 135.1 57.5455C134.422 57.06 133.902 56.3811 133.606 55.5951L130.713 56.8132C131.258 58.1572 132.187 59.3058 133.381 60.1117C134.575 60.9177 135.98 61.3443 137.415 61.3369C141.31 61.3369 144.604 59.0171 144.604 53.3622V39.6168H141.453V40.8638ZM137.644 51.4483C136.496 51.3497 135.426 50.8182 134.646 49.959C133.866 49.0997 133.434 47.9754 133.434 46.8086C133.434 45.6417 133.866 44.5174 134.646 43.6582C135.426 42.7989 136.496 42.2674 137.644 42.1688C138.215 42.1971 138.775 42.3415 139.29 42.5935C139.805 42.8454 140.265 43.1998 140.642 43.6355C141.019 44.0712 141.305 44.5792 141.484 45.1293C141.662 45.6794 141.73 46.2603 141.682 46.8375C141.727 47.411 141.657 47.9878 141.476 48.5332C141.296 49.0787 141.008 49.5818 140.631 50.0122C140.254 50.4427 139.796 50.7917 139.282 51.0385C138.769 51.2852 138.212 51.4246 137.644 51.4483ZM180.988 31.4977H173.039V54.0002H176.356V45.4747H180.988C181.926 45.5268 182.865 45.3846 183.747 45.0569C184.629 44.7293 185.436 44.2229 186.119 43.5689C186.801 42.9148 187.345 42.1268 187.716 41.2529C188.088 40.379 188.279 39.4376 188.279 38.4862C188.279 37.5348 188.088 36.5934 187.716 35.7195C187.345 34.8457 186.801 34.0576 186.119 33.4036C185.436 32.7495 184.629 32.2432 183.747 31.9155C182.865 31.5878 181.926 31.4457 180.988 31.4977ZM181.074 42.3431H176.356V34.6296H181.074C181.581 34.6189 182.085 34.7108 182.556 34.8999C183.027 35.0889 183.457 35.3713 183.819 35.7305C184.181 36.0897 184.469 36.5184 184.665 36.9916C184.862 37.4648 184.963 37.973 184.963 38.4863C184.963 38.9996 184.862 39.5078 184.665 39.981C184.469 40.4542 184.181 40.8829 183.819 41.2421C183.457 41.6013 183.027 41.8837 182.556 42.0728C182.085 42.2618 181.581 42.3537 181.074 42.3431ZM201.575 39.1115C200.364 39.04 199.159 39.3278 198.107 39.9398C197.056 40.5518 196.204 41.4612 195.656 42.5565L198.601 43.8014C198.893 43.2578 199.335 42.8121 199.873 42.519C200.412 42.2259 201.023 42.0981 201.632 42.1512C202.473 42.068 203.313 42.326 203.967 42.8687C204.621 43.4113 205.035 44.1944 205.12 45.0461V45.2778C204.055 44.7048 202.866 44.4065 201.66 44.4093C198.487 44.4093 195.256 46.1752 195.256 49.4755C195.286 50.1711 195.455 50.8532 195.751 51.4816C196.047 52.1099 196.465 52.6716 196.98 53.1333C197.495 53.595 198.096 53.9473 198.747 54.1694C199.399 54.3914 200.088 54.4786 200.774 54.4259C201.609 54.4756 202.442 54.2978 203.186 53.9108C203.931 53.5239 204.559 52.942 205.006 52.2257H205.12V53.9627H208.322V45.3357C208.322 41.3406 205.377 39.1115 201.575 39.1115ZM201.174 51.444C200.088 51.444 198.572 50.8941 198.572 49.5333C198.572 47.7965 200.459 47.1305 202.089 47.1305C203.148 47.1019 204.195 47.3619 205.12 47.8832C204.998 48.8593 204.531 49.7576 203.806 50.4122C203.081 51.0668 202.146 51.4333 201.174 51.444ZM219.988 39.6036L216.185 49.3596H216.071L212.125 39.6036H208.551L214.47 53.2389L211.096 60.8237H214.555L223.676 39.6036H219.988ZM190.109 54.0002H193.426V31.4977H190.109V54.0002Z" fill="white"/>
<path d="M18.5516 13.5684C17.9687 14.2742 17.6743 15.1789 17.7289 16.0972V55.906C17.6742 56.8244 17.9685 57.7292 18.5516 58.4348L18.6832 58.5646L40.7081 36.2647V35.7386L18.6832 13.4377L18.5516 13.5684Z" fill="url(#paint0_linear)"/>
<path d="M48.0493 43.7013L40.7081 36.2648V35.7386L48.051 28.304L48.2165 28.3995L56.9149 33.4037C59.3995 34.8329 59.3995 37.1714 56.9149 38.6015L48.2165 43.6057L48.0493 43.7013Z" fill="url(#paint1_linear)"/>
<path d="M48.2165 43.6047L40.7081 36.0017L18.5517 58.4348C19.0579 58.8869 19.7044 59.1454 20.3791 59.1656C21.0539 59.1858 21.7143 58.9664 22.2461 58.5453L48.2165 43.6047Z" fill="url(#paint2_linear)"/>
<path d="M48.2165 28.3986L22.2461 13.458C21.7143 13.037 21.0539 12.8175 20.3791 12.8377C19.7044 12.8579 19.0579 13.1164 18.5517 13.5685L40.7081 36.0018L48.2165 28.3986Z" fill="url(#paint3_linear)"/>
<path opacity="0.2" d="M48.051 43.4375L22.2461 58.2826C21.7348 58.6766 21.1108 58.8916 20.4683 58.8951C19.8257 58.8986 19.1995 58.6903 18.6841 58.3018L18.5517 58.4359L18.6832 58.5657L18.6841 58.5648C19.1994 58.9535 19.8257 59.1619 20.4683 59.1584C21.1109 59.155 21.7349 58.9398 22.2461 58.5455L48.2165 43.6049L48.051 43.4375Z" fill="black"/>
<path opacity="0.12" d="M18.5516 58.1729C17.9687 57.4671 17.6744 56.5624 17.7289 55.644V55.907C17.6744 56.8254 17.9687 57.7301 18.5516 58.4358L18.6841 58.3017L18.5516 58.1729Z" fill="black"/>
<path opacity="0.12" d="M56.9148 38.3376L48.051 43.4373L48.2165 43.6047L56.9148 38.6006C57.4265 38.3757 57.8693 38.0161 58.1971 37.5592C58.5248 37.1022 58.7256 36.5646 58.7785 36.0024C58.6685 36.5116 58.4428 36.9877 58.1193 37.3931C57.7958 37.7984 57.3834 38.1218 56.9148 38.3376Z" fill="black"/>
<path opacity="0.25" d="M22.246 13.7219L56.9148 33.6658C57.3835 33.8815 57.7961 34.205 58.1196 34.6106C58.4431 35.0161 58.6687 35.4925 58.7785 36.0018C58.726 35.4394 58.5253 34.9016 58.1975 34.4444C57.8697 33.9873 57.4267 33.6276 56.9148 33.4028L22.246 13.4589C19.7614 12.0296 17.7289 13.2168 17.7289 16.0983V16.3612C17.7289 13.48 19.7614 12.2927 22.246 13.7219Z" fill="white"/>
<defs>
<linearGradient id="paint0_linear" x1="38.7549" y1="15.6775" x2="8.54906" y2="45.5106" gradientUnits="userSpaceOnUse">
<stop stop-color="#00A0FF"/>
<stop offset="0.00657" stop-color="#00A1FF"/>
<stop offset="0.2601" stop-color="#00BEFF"/>
<stop offset="0.5122" stop-color="#00D2FF"/>
<stop offset="0.7604" stop-color="#00DFFF"/>
<stop offset="1" stop-color="#00E3FF"/>
</linearGradient>
<linearGradient id="paint1_linear" x1="60.1498" y1="36.0026" x2="17.1331" y2="36.0026" gradientUnits="userSpaceOnUse">
<stop stop-color="#FFE000"/>
<stop offset="0.4087" stop-color="#FFBD00"/>
<stop offset="0.7754" stop-color="#FFA500"/>
<stop offset="1" stop-color="#FF9C00"/>
</linearGradient>
<linearGradient id="paint2_linear" x1="44.1366" y1="40.1329" x2="3.17509" y2="80.5889" gradientUnits="userSpaceOnUse">
<stop stop-color="#FF3A44"/>
<stop offset="1" stop-color="#C31162"/>
</linearGradient>
<linearGradient id="paint3_linear" x1="12.9729" y1="0.317289" x2="31.2639" y2="18.3826" gradientUnits="userSpaceOnUse">
<stop stop-color="#32A071"/>
<stop offset="0.0685" stop-color="#2DA771"/>
<stop offset="0.4762" stop-color="#15CF74"/>
<stop offset="0.8009" stop-color="#06E775"/>
<stop offset="1" stop-color="#00F076"/>
</linearGradient>
</defs>
</svg>
